<?xml version="1.0" encoding="UTF-8"?>
<!DOCTYPE svg PUBLIC "-//W3C//DTD SVG 1.1//EN" "http://www.w3.org/Graphics/SVG/1.1/DTD/svg11.dtd">
<svg width="243mm" height="108mm" viewBox="0 0 24300 10800" version="1.1" baseProfile="tiny" xmlns="http://www.w3.org/2000/svg" stroke-width="28.222" stroke-linejoin="round" xml:space="preserve">
 <path fill="rgb(255,255,255)" stroke="none" d="M 12193,10756 L 47,10756 47,0 24338,0 24338,10756 12193,10756 Z"/>
 <path fill="none" stroke="rgb(179,179,179)" stroke-linejoin="round" d="M 11296,8717 L 2152,8717 2152,1267 20440,1267 20440,8717 11296,8717 Z"/>
 <path fill="none" stroke="rgb(179,179,179)" stroke-linejoin="round" d="M 20439,8716 L 2152,8716"/>
 <path fill="none" stroke="rgb(179,179,179)" stroke-linejoin="round" d="M 20439,7888 L 2152,7888"/>
 <path fill="none" stroke="rgb(179,179,179)" stroke-linejoin="round" d="M 20439,7060 L 2152,7060"/>
 <path fill="none" stroke="rgb(179,179,179)" stroke-linejoin="round" d="M 20439,6232 L 2152,6232"/>
 <path fill="none" stroke="rgb(179,179,179)" stroke-linejoin="round" d="M 20439,5404 L 2152,5404"/>
 <path fill="none" stroke="rgb(179,179,179)" stroke-linejoin="round" d="M 20439,4577 L 2152,4577"/>
 <path fill="none" stroke="rgb(179,179,179)" stroke-linejoin="round" d="M 20439,3749 L 2152,3749"/>
 <path fill="none" stroke="rgb(179,179,179)" stroke-linejoin="round" d="M 20439,2921 L 2152,2921"/>
 <path fill="none" stroke="rgb(179,179,179)" stroke-linejoin="round" d="M 20439,2093 L 2152,2093"/>
 <path fill="none" stroke="rgb(179,179,179)" stroke-linejoin="round" d="M 20439,1266 L 2152,1266"/>
 <path fill="none" stroke="rgb(179,179,179)" stroke-linejoin="round" d="M 2152,8866 L 2152,8716"/>
 <path fill="none" stroke="rgb(179,179,179)" stroke-linejoin="round" d="M 2152,8866 L 2152,8716"/>
 <path fill="none" stroke="rgb(179,179,179)" stroke-linejoin="round" d="M 2490,8866 L 2490,8716"/>
 <path fill="none" stroke="rgb(179,179,179)" stroke-linejoin="round" d="M 2490,8866 L 2490,8716"/>
 <path fill="none" stroke="rgb(179,179,179)" stroke-linejoin="round" d="M 2829,8866 L 2829,8716"/>
 <path fill="none" stroke="rgb(179,179,179)" stroke-linejoin="round" d="M 2829,8866 L 2829,8716"/>
 <path fill="none" stroke="rgb(179,179,179)" stroke-linejoin="round" d="M 3168,8866 L 3168,8716"/>
 <path fill="none" stroke="rgb(179,179,179)" stroke-linejoin="round" d="M 3168,8866 L 3168,8716"/>
 <path fill="none" stroke="rgb(179,179,179)" stroke-linejoin="round" d="M 3506,8866 L 3506,8716"/>
 <path fill="none" stroke="rgb(179,179,179)" stroke-linejoin="round" d="M 3506,8866 L 3506,8716"/>
 <path fill="none" stroke="rgb(179,179,179)" stroke-linejoin="round" d="M 3845,8866 L 3845,8716"/>
 <path fill="none" stroke="rgb(179,179,179)" stroke-linejoin="round" d="M 3845,8866 L 3845,8716"/>
 <path fill="none" stroke="rgb(179,179,179)" stroke-linejoin="round" d="M 4184,8866 L 4184,8716"/>
 <path fill="none" stroke="rgb(179,179,179)" stroke-linejoin="round" d="M 4184,8866 L 4184,8716"/>
 <path fill="none" stroke="rgb(179,179,179)" stroke-linejoin="round" d="M 4522,8866 L 4522,8716"/>
 <path fill="none" stroke="rgb(179,179,179)" stroke-linejoin="round" d="M 4522,8866 L 4522,8716"/>
 <path fill="none" stroke="rgb(179,179,179)" stroke-linejoin="round" d="M 4861,8866 L 4861,8716"/>
 <path fill="none" stroke="rgb(179,179,179)" stroke-linejoin="round" d="M 4861,8866 L 4861,8716"/>
 <path fill="none" stroke="rgb(179,179,179)" stroke-linejoin="round" d="M 5200,8866 L 5200,8716"/>
 <path fill="none" stroke="rgb(179,179,179)" stroke-linejoin="round" d="M 5200,8866 L 5200,8716"/>
 <path fill="none" stroke="rgb(179,179,179)" stroke-linejoin="round" d="M 5538,8866 L 5538,8716"/>
 <path fill="none" stroke="rgb(179,179,179)" stroke-linejoin="round" d="M 5538,8866 L 5538,8716"/>
 <path fill="none" stroke="rgb(179,179,179)" stroke-linejoin="round" d="M 5877,8866 L 5877,8716"/>
 <path fill="none" stroke="rgb(179,179,179)" stroke-linejoin="round" d="M 5877,8866 L 5877,8716"/>
 <path fill="none" stroke="rgb(179,179,179)" stroke-linejoin="round" d="M 6216,8866 L 6216,8716"/>
 <path fill="none" stroke="rgb(179,179,179)" stroke-linejoin="round" d="M 6216,8866 L 6216,8716"/>
 <path fill="none" stroke="rgb(179,179,179)" stroke-linejoin="round" d="M 6554,8866 L 6554,8716"/>
 <path fill="none" stroke="rgb(179,179,179)" stroke-linejoin="round" d="M 6554,8866 L 6554,8716"/>
 <path fill="none" stroke="rgb(179,179,179)" stroke-linejoin="round" d="M 6893,8866 L 6893,8716"/>
 <path fill="none" stroke="rgb(179,179,179)" stroke-linejoin="round" d="M 6893,8866 L 6893,8716"/>
 <path fill="none" stroke="rgb(179,179,179)" stroke-linejoin="round" d="M 7232,8866 L 7232,8716"/>
 <path fill="none" stroke="rgb(179,179,179)" stroke-linejoin="round" d="M 7232,8866 L 7232,8716"/>
 <path fill="none" stroke="rgb(179,179,179)" stroke-linejoin="round" d="M 7570,8866 L 7570,8716"/>
 <path fill="none" stroke="rgb(179,179,179)" stroke-linejoin="round" d="M 7570,8866 L 7570,8716"/>
 <path fill="none" stroke="rgb(179,179,179)" stroke-linejoin="round" d="M 7909,8866 L 7909,8716"/>
 <path fill="none" stroke="rgb(179,179,179)" stroke-linejoin="round" d="M 7909,8866 L 7909,8716"/>
 <path fill="none" stroke="rgb(179,179,179)" stroke-linejoin="round" d="M 8248,8866 L 8248,8716"/>
 <path fill="none" stroke="rgb(179,179,179)" stroke-linejoin="round" d="M 8248,8866 L 8248,8716"/>
 <path fill="none" stroke="rgb(179,179,179)" stroke-linejoin="round" d="M 8587,8866 L 8587,8716"/>
 <path fill="none" stroke="rgb(179,179,179)" stroke-linejoin="round" d="M 8587,8866 L 8587,8716"/>
 <path fill="none" stroke="rgb(179,179,179)" stroke-linejoin="round" d="M 8925,8866 L 8925,8716"/>
 <path fill="none" stroke="rgb(179,179,179)" stroke-linejoin="round" d="M 8925,8866 L 8925,8716"/>
 <path fill="none" stroke="rgb(179,179,179)" stroke-linejoin="round" d="M 9264,8866 L 9264,8716"/>
 <path fill="none" stroke="rgb(179,179,179)" stroke-linejoin="round" d="M 9264,8866 L 9264,8716"/>
 <path fill="none" stroke="rgb(179,179,179)" stroke-linejoin="round" d="M 9603,8866 L 9603,8716"/>
 <path fill="none" stroke="rgb(179,179,179)" stroke-linejoin="round" d="M 9603,8866 L 9603,8716"/>
 <path fill="none" stroke="rgb(179,179,179)" stroke-linejoin="round" d="M 9941,8866 L 9941,8716"/>
 <path fill="none" stroke="rgb(179,179,179)" stroke-linejoin="round" d="M 9941,8866 L 9941,8716"/>
 <path fill="none" stroke="rgb(179,179,179)" stroke-linejoin="round" d="M 10280,8866 L 10280,8716"/>
 <path fill="none" stroke="rgb(179,179,179)" stroke-linejoin="round" d="M 10280,8866 L 10280,8716"/>
 <path fill="none" stroke="rgb(179,179,179)" stroke-linejoin="round" d="M 10619,8866 L 10619,8716"/>
 <path fill="none" stroke="rgb(179,179,179)" stroke-linejoin="round" d="M 10619,8866 L 10619,8716"/>
 <path fill="none" stroke="rgb(179,179,179)" stroke-linejoin="round" d="M 10957,8866 L 10957,8716"/>
 <path fill="none" stroke="rgb(179,179,179)" stroke-linejoin="round" d="M 10957,8866 L 10957,8716"/>
 <path fill="none" stroke="rgb(179,179,179)" stroke-linejoin="round" d="M 11296,8866 L 11296,8716"/>
 <path fill="none" stroke="rgb(179,179,179)" stroke-linejoin="round" d="M 11296,8866 L 11296,8716"/>
 <path fill="none" stroke="rgb(179,179,179)" stroke-linejoin="round" d="M 11635,8866 L 11635,8716"/>
 <path fill="none" stroke="rgb(179,179,179)" stroke-linejoin="round" d="M 11635,8866 L 11635,8716"/>
 <path fill="none" stroke="rgb(179,179,179)" stroke-linejoin="round" d="M 11973,8866 L 11973,8716"/>
 <path fill="none" stroke="rgb(179,179,179)" stroke-linejoin="round" d="M 11973,8866 L 11973,8716"/>
 <path fill="none" stroke="rgb(179,179,179)" stroke-linejoin="round" d="M 12311,8866 L 12311,8716"/>
 <path fill="none" stroke="rgb(179,179,179)" stroke-linejoin="round" d="M 12311,8866 L 12311,8716"/>
 <path fill="none" stroke="rgb(179,179,179)" stroke-linejoin="round" d="M 12650,8866 L 12650,8716"/>
 <path fill="none" stroke="rgb(179,179,179)" stroke-linejoin="round" d="M 12650,8866 L 12650,8716"/>
 <path fill="none" stroke="rgb(179,179,179)" stroke-linejoin="round" d="M 12988,8866 L 12988,8716"/>
 <path fill="none" stroke="rgb(179,179,179)" stroke-linejoin="round" d="M 12988,8866 L 12988,8716"/>
 <path fill="none" stroke="rgb(179,179,179)" stroke-linejoin="round" d="M 13327,8866 L 13327,8716"/>
 <path fill="none" stroke="rgb(179,179,179)" stroke-linejoin="round" d="M 13327,8866 L 13327,8716"/>
 <path fill="none" stroke="rgb(179,179,179)" stroke-linejoin="round" d="M 13666,8866 L 13666,8716"/>
 <path fill="none" stroke="rgb(179,179,179)" stroke-linejoin="round" d="M 13666,8866 L 13666,8716"/>
 <path fill="none" stroke="rgb(179,179,179)" stroke-linejoin="round" d="M 14004,8866 L 14004,8716"/>
 <path fill="none" stroke="rgb(179,179,179)" stroke-linejoin="round" d="M 14004,8866 L 14004,8716"/>
 <path fill="none" stroke="rgb(179,179,179)" stroke-linejoin="round" d="M 14343,8866 L 14343,8716"/>
 <path fill="none" stroke="rgb(179,179,179)" stroke-linejoin="round" d="M 14343,8866 L 14343,8716"/>
 <path fill="none" stroke="rgb(179,179,179)" stroke-linejoin="round" d="M 14682,8866 L 14682,8716"/>
 <path fill="none" stroke="rgb(179,179,179)" stroke-linejoin="round" d="M 14682,8866 L 14682,8716"/>
 <path fill="none" stroke="rgb(179,179,179)" stroke-linejoin="round" d="M 15021,8866 L 15021,8716"/>
 <path fill="none" stroke="rgb(179,179,179)" stroke-linejoin="round" d="M 15021,8866 L 15021,8716"/>
 <path fill="none" stroke="rgb(179,179,179)" stroke-linejoin="round" d="M 15359,8866 L 15359,8716"/>
 <path fill="none" stroke="rgb(179,179,179)" stroke-linejoin="round" d="M 15359,8866 L 15359,8716"/>
 <path fill="none" stroke="rgb(179,179,179)" stroke-linejoin="round" d="M 15698,8866 L 15698,8716"/>
 <path fill="none" stroke="rgb(179,179,179)" stroke-linejoin="round" d="M 15698,8866 L 15698,8716"/>
 <path fill="none" stroke="rgb(179,179,179)" stroke-linejoin="round" d="M 16037,8866 L 16037,8716"/>
 <path fill="none" stroke="rgb(179,179,179)" stroke-linejoin="round" d="M 16037,8866 L 16037,8716"/>
 <path fill="none" stroke="rgb(179,179,179)" stroke-linejoin="round" d="M 16375,8866 L 16375,8716"/>
 <path fill="none" stroke="rgb(179,179,179)" stroke-linejoin="round" d="M 16375,8866 L 16375,8716"/>
 <path fill="none" stroke="rgb(179,179,179)" stroke-linejoin="round" d="M 16714,8866 L 16714,8716"/>
 <path fill="none" stroke="rgb(179,179,179)" stroke-linejoin="round" d="M 16714,8866 L 16714,8716"/>
 <path fill="none" stroke="rgb(179,179,179)" stroke-linejoin="round" d="M 17053,8866 L 17053,8716"/>
 <path fill="none" stroke="rgb(179,179,179)" stroke-linejoin="round" d="M 17053,8866 L 17053,8716"/>
 <path fill="none" stroke="rgb(179,179,179)" stroke-linejoin="round" d="M 17391,8866 L 17391,8716"/>
 <path fill="none" stroke="rgb(179,179,179)" stroke-linejoin="round" d="M 17391,8866 L 17391,8716"/>
 <path fill="none" stroke="rgb(179,179,179)" stroke-linejoin="round" d="M 17730,8866 L 17730,8716"/>
 <path fill="none" stroke="rgb(179,179,179)" stroke-linejoin="round" d="M 17730,8866 L 17730,8716"/>
 <path fill="none" stroke="rgb(179,179,179)" stroke-linejoin="round" d="M 18069,8866 L 18069,8716"/>
 <path fill="none" stroke="rgb(179,179,179)" stroke-linejoin="round" d="M 18069,8866 L 18069,8716"/>
 <path fill="none" stroke="rgb(179,179,179)" stroke-linejoin="round" d="M 18407,8866 L 18407,8716"/>
 <path fill="none" stroke="rgb(179,179,179)" stroke-linejoin="round" d="M 18407,8866 L 18407,8716"/>
 <path fill="none" stroke="rgb(179,179,179)" stroke-linejoin="round" d="M 18746,8866 L 18746,8716"/>
 <path fill="none" stroke="rgb(179,179,179)" stroke-linejoin="round" d="M 18746,8866 L 18746,8716"/>
 <path fill="none" stroke="rgb(179,179,179)" stroke-linejoin="round" d="M 19085,8866 L 19085,8716"/>
 <path fill="none" stroke="rgb(179,179,179)" stroke-linejoin="round" d="M 19085,8866 L 19085,8716"/>
 <path fill="none" stroke="rgb(179,179,179)" stroke-linejoin="round" d="M 19423,8866 L 19423,8716"/>
 <path fill="none" stroke="rgb(179,179,179)" stroke-linejoin="round" d="M 19423,8866 L 19423,8716"/>
 <path fill="none" stroke="rgb(179,179,179)" stroke-linejoin="round" d="M 19762,8866 L 19762,8716"/>
 <path fill="none" stroke="rgb(179,179,179)" stroke-linejoin="round" d="M 19762,8866 L 19762,8716"/>
 <path fill="none" stroke="rgb(179,179,179)" stroke-linejoin="round" d="M 20101,8866 L 20101,8716"/>
 <path fill="none" stroke="rgb(179,179,179)" stroke-linejoin="round" d="M 20101,8866 L 20101,8716"/>
 <path fill="none" stroke="rgb(179,179,179)" stroke-linejoin="round" d="M 20439,8866 L 20439,8716"/>
 <path fill="none" stroke="rgb(179,179,179)" stroke-linejoin="round" d="M 20439,8866 L 20439,8716"/>
 <path fill="none" stroke="rgb(179,179,179)" stroke-linejoin="round" d="M 2152,8716 L 20439,8716"/>
 <path fill="none" stroke="rgb(179,179,179)" stroke-linejoin="round" d="M 2002,8716 L 2152,8716"/>
 <path fill="none" stroke="rgb(179,179,179)" stroke-linejoin="round" d="M 2002,8716 L 2152,8716"/>
 <path fill="none" stroke="rgb(179,179,179)" stroke-linejoin="round" d="M 2002,7888 L 2152,7888"/>
 <path fill="none" stroke="rgb(179,179,179)" stroke-linejoin="round" d="M 2002,7888 L 2152,7888"/>
 <path fill="none" stroke="rgb(179,179,179)" stroke-linejoin="round" d="M 2002,7060 L 2152,7060"/>
 <path fill="none" stroke="rgb(179,179,179)" stroke-linejoin="round" d="M 2002,7060 L 2152,7060"/>
 <path fill="none" stroke="rgb(179,179,179)" stroke-linejoin="round" d="M 2002,6232 L 2152,6232"/>
 <path fill="none" stroke="rgb(179,179,179)" stroke-linejoin="round" d="M 2002,6232 L 2152,6232"/>
 <path fill="none" stroke="rgb(179,179,179)" stroke-linejoin="round" d="M 2002,5404 L 2152,5404"/>
 <path fill="none" stroke="rgb(179,179,179)" stroke-linejoin="round" d="M 2002,5404 L 2152,5404"/>
 <path fill="none" stroke="rgb(179,179,179)" stroke-linejoin="round" d="M 2002,4577 L 2152,4577"/>
 <path fill="none" stroke="rgb(179,179,179)" stroke-linejoin="round" d="M 2002,4577 L 2152,4577"/>
 <path fill="none" stroke="rgb(179,179,179)" stroke-linejoin="round" d="M 2002,3749 L 2152,3749"/>
 <path fill="none" stroke="rgb(179,179,179)" stroke-linejoin="round" d="M 2002,3749 L 2152,3749"/>
 <path fill="none" stroke="rgb(179,179,179)" stroke-linejoin="round" d="M 2002,2921 L 2152,2921"/>
 <path fill="none" stroke="rgb(179,179,179)" stroke-linejoin="round" d="M 2002,2921 L 2152,2921"/>
 <path fill="none" stroke="rgb(179,179,179)" stroke-linejoin="round" d="M 2002,2093 L 2152,2093"/>
 <path fill="none" stroke="rgb(179,179,179)" stroke-linejoin="round" d="M 2002,2093 L 2152,2093"/>
 <path fill="none" stroke="rgb(179,179,179)" stroke-linejoin="round" d="M 2002,1266 L 2152,1266"/>
 <path fill="none" stroke="rgb(179,179,179)" stroke-linejoin="round" d="M 2002,1266 L 2152,1266"/>
 <path fill="none" stroke="rgb(179,179,179)" stroke-linejoin="round" d="M 2152,8716 L 2152,1266"/>
 <path fill="rgb(0,69,134)" stroke="none" d="M 19423,8716 L 19694,8716 19694,5471 19423,5471 19423,8716 Z"/>
 <path fill="rgb(0,69,134)" stroke="none" d="M 19085,8716 L 19356,8716 19356,3559 19085,3559 19085,8716 Z"/>
 <path fill="rgb(0,69,134)" stroke="none" d="M 18746,8716 L 19017,8716 19017,4481 18746,4481 18746,8716 Z"/>
 <path fill="rgb(0,69,134)" stroke="none" d="M 18407,8716 L 18678,8716 18678,3730 18407,3730 18407,8716 Z"/>
 <path fill="rgb(0,69,134)" stroke="none" d="M 18069,8716 L 18340,8716 18340,4686 18069,4686 18069,8716 Z"/>
 <path fill="rgb(0,69,134)" stroke="none" d="M 17730,8716 L 18001,8716 18001,4242 17730,4242 17730,8716 Z"/>
 <path fill="rgb(0,69,134)" stroke="none" d="M 17391,8716 L 17662,8716 17662,5028 17391,5028 17391,8716 Z"/>
 <path fill="rgb(0,69,134)" stroke="none" d="M 17053,8716 L 17324,8716 17324,4242 17053,4242 17053,8716 Z"/>
 <path fill="rgb(0,69,134)" stroke="none" d="M 16714,8716 L 16985,8716 16985,4003 16714,4003 16714,8716 Z"/>
 <path fill="rgb(0,69,134)" stroke="none" d="M 16375,8716 L 16646,8716 16646,3798 16375,3798 16375,8716 Z"/>
 <path fill="rgb(0,69,134)" stroke="none" d="M 16037,8716 L 16308,8716 16308,4721 16037,4721 16037,8716 Z"/>
 <path fill="rgb(0,69,134)" stroke="none" d="M 15698,8716 L 15969,8716 15969,3901 15698,3901 15698,8716 Z"/>
 <path fill="rgb(0,69,134)" stroke="none" d="M 15359,8716 L 15630,8716 15630,3491 15359,3491 15359,8716 Z"/>
 <path fill="rgb(0,69,134)" stroke="none" d="M 15021,8716 L 15291,8716 15291,3559 15021,3559 15021,8716 Z"/>
 <path fill="rgb(0,69,134)" stroke="none" d="M 14682,8716 L 14953,8716 14953,4140 14682,4140 14682,8716 Z"/>
 <path fill="rgb(0,69,134)" stroke="none" d="M 14343,8716 L 14614,8716 14614,3935 14343,3935 14343,8716 Z"/>
 <path fill="rgb(0,69,134)" stroke="none" d="M 14004,8716 L 14275,8716 14275,4652 14004,4652 14004,8716 Z"/>
 <path fill="rgb(0,69,134)" stroke="none" d="M 13666,8716 L 13937,8716 13937,4140 13666,4140 13666,8716 Z"/>
 <path fill="rgb(0,69,134)" stroke="none" d="M 13327,8716 L 13598,8716 13598,7042 13327,7042 13327,8716 Z"/>
 <path fill="rgb(255,66,14)" stroke="none" d="M 9332,8716 L 9603,8716 9603,8013 9332,8013 9332,8716 Z"/>
 <path fill="rgb(255,66,14)" stroke="none" d="M 8993,8716 L 9264,8716 9264,6779 8993,6779 8993,8716 Z"/>
 <path fill="rgb(255,66,14)" stroke="none" d="M 8654,8716 L 8925,8716 8925,5753 8654,5753 8654,8716 Z"/>
 <path fill="rgb(255,66,14)" stroke="none" d="M 8316,8716 L 8587,8716 8587,4596 8316,4596 8316,8716 Z"/>
 <path fill="rgb(255,66,14)" stroke="none" d="M 7977,8716 L 8248,8716 8248,3647 7977,3647 7977,8716 Z"/>
 <path fill="rgb(255,66,14)" stroke="none" d="M 7638,8716 L 7909,8716 7909,2450 7638,2450 7638,8716 Z"/>
 <path fill="rgb(255,66,14)" stroke="none" d="M 7300,8716 L 7570,8716 7570,2754 7300,2754 7300,8716 Z"/>
 <path fill="rgb(255,66,14)" stroke="none" d="M 6961,8716 L 7232,8716 7232,2166 6961,2166 6961,8716 Z"/>
 <path fill="rgb(255,66,14)" stroke="none" d="M 6622,8716 L 6893,8716 6893,2564 6622,2564 6622,8716 Z"/>
 <path fill="rgb(255,66,14)" stroke="none" d="M 6283,8716 L 6554,8716 6554,2792 6283,2792 6283,8716 Z"/>
 <path fill="rgb(255,66,14)" stroke="none" d="M 5945,8716 L 6216,8716 6216,2583 5945,2583 5945,8716 Z"/>
 <path fill="rgb(255,66,14)" stroke="none" d="M 5606,8716 L 5877,8716 5877,2735 5606,2735 5606,8716 Z"/>
 <path fill="rgb(255,66,14)" stroke="none" d="M 5267,8716 L 5538,8716 5538,2469 5267,2469 5267,8716 Z"/>
 <path fill="rgb(255,66,14)" stroke="none" d="M 4929,8716 L 5200,8716 5200,2849 4929,2849 4929,8716 Z"/>
 <path fill="rgb(255,66,14)" stroke="none" d="M 4590,8716 L 4861,8716 4861,4634 4590,4634 4590,8716 Z"/>
 <path fill="rgb(255,66,14)" stroke="none" d="M 4251,8716 L 4522,8716 4522,4710 4251,4710 4251,8716 Z"/>
 <path fill="rgb(255,66,14)" stroke="none" d="M 3913,8716 L 4184,8716 4184,5601 3913,5601 3913,8716 Z"/>
 <path fill="rgb(255,66,14)" stroke="none" d="M 3574,8716 L 3845,8716 3845,7386 3574,7386 3574,8716 Z"/>
 <path fill="rgb(255,66,14)" stroke="none" d="M 3235,8716 L 3506,8716 3506,8336 3235,8336 3235,8716 Z"/>
 <text class="TextShape"><tspan class="TextParagraph" font-family="Liberation Sans" font-size="282px" font-weight="400"><tspan class="TextPosition" x="2162" y="9550"><tspan fill="rgb(0,0,0)" stroke="none">50</tspan></tspan></tspan></text>
 <text class="TextShape"><tspan class="TextParagraph" font-family="Liberation Sans" font-size="282px" font-weight="400"><tspan class="TextPosition" x="2501" y="9231"><tspan fill="rgb(0,0,0)" stroke="none">51</tspan></tspan></tspan></text>
 <text class="TextShape"><tspan class="TextParagraph" font-family="Liberation Sans" font-size="282px" font-weight="400"><tspan class="TextPosition" x="2839" y="9550"><tspan fill="rgb(0,0,0)" stroke="none">52</tspan></tspan></tspan></text>
 <text class="TextShape"><tspan class="TextParagraph" font-family="Liberation Sans" font-size="282px" font-weight="400"><tspan class="TextPosition" x="3178" y="9231"><tspan fill="rgb(0,0,0)" stroke="none">53</tspan></tspan></tspan></text>
 <text class="TextShape"><tspan class="TextParagraph" font-family="Liberation Sans" font-size="282px" font-weight="400"><tspan class="TextPosition" x="3517" y="9550"><tspan fill="rgb(0,0,0)" stroke="none">54</tspan></tspan></tspan></text>
 <text class="TextShape"><tspan class="TextParagraph" font-family="Liberation Sans" font-size="282px" font-weight="400"><tspan class="TextPosition" x="3855" y="9231"><tspan fill="rgb(0,0,0)" stroke="none">55</tspan></tspan></tspan></text>
 <text class="TextShape"><tspan class="TextParagraph" font-family="Liberation Sans" font-size="282px" font-weight="400"><tspan class="TextPosition" x="4194" y="9550"><tspan fill="rgb(0,0,0)" stroke="none">56</tspan></tspan></tspan></text>
 <text class="TextShape"><tspan class="TextParagraph" font-family="Liberation Sans" font-size="282px" font-weight="400"><tspan class="TextPosition" x="4533" y="9231"><tspan fill="rgb(0,0,0)" stroke="none">57</tspan></tspan></tspan></text>
 <text class="TextShape"><tspan class="TextParagraph" font-family="Liberation Sans" font-size="282px" font-weight="400"><tspan class="TextPosition" x="4871" y="9550"><tspan fill="rgb(0,0,0)" stroke="none">58</tspan></tspan></tspan></text>
 <text class="TextShape"><tspan class="TextParagraph" font-family="Liberation Sans" font-size="282px" font-weight="400"><tspan class="TextPosition" x="5210" y="9231"><tspan fill="rgb(0,0,0)" stroke="none">59</tspan></tspan></tspan></text>
 <text class="TextShape"><tspan class="TextParagraph" font-family="Liberation Sans" font-size="282px" font-weight="400"><tspan class="TextPosition" x="5549" y="9550"><tspan fill="rgb(0,0,0)" stroke="none">60</tspan></tspan></tspan></text>
 <text class="TextShape"><tspan class="TextParagraph" font-family="Liberation Sans" font-size="282px" font-weight="400"><tspan class="TextPosition" x="5887" y="9231"><tspan fill="rgb(0,0,0)" stroke="none">61</tspan></tspan></tspan></text>
 <text class="TextShape"><tspan class="TextParagraph" font-family="Liberation Sans" font-size="282px" font-weight="400"><tspan class="TextPosition" x="6226" y="9550"><tspan fill="rgb(0,0,0)" stroke="none">62</tspan></tspan></tspan></text>
 <text class="TextShape"><tspan class="TextParagraph" font-family="Liberation Sans" font-size="282px" font-weight="400"><tspan class="TextPosition" x="6565" y="9231"><tspan fill="rgb(0,0,0)" stroke="none">63</tspan></tspan></tspan></text>
 <text class="TextShape"><tspan class="TextParagraph" font-family="Liberation Sans" font-size="282px" font-weight="400"><tspan class="TextPosition" x="6903" y="9550"><tspan fill="rgb(0,0,0)" stroke="none">64</tspan></tspan></tspan></text>
 <text class="TextShape"><tspan class="TextParagraph" font-family="Liberation Sans" font-size="282px" font-weight="400"><tspan class="TextPosition" x="7242" y="9231"><tspan fill="rgb(0,0,0)" stroke="none">65</tspan></tspan></tspan></text>
 <text class="TextShape"><tspan class="TextParagraph" font-family="Liberation Sans" font-size="282px" font-weight="400"><tspan class="TextPosition" x="7581" y="9550"><tspan fill="rgb(0,0,0)" stroke="none">66</tspan></tspan></tspan></text>
 <text class="TextShape"><tspan class="TextParagraph" font-family="Liberation Sans" font-size="282px" font-weight="400"><tspan class="TextPosition" x="7919" y="9231"><tspan fill="rgb(0,0,0)" stroke="none">67</tspan></tspan></tspan></text>
 <text class="TextShape"><tspan class="TextParagraph" font-family="Liberation Sans" font-size="282px" font-weight="400"><tspan class="TextPosition" x="8258" y="9550"><tspan fill="rgb(0,0,0)" stroke="none">68</tspan></tspan></tspan></text>
 <text class="TextShape"><tspan class="TextParagraph" font-family="Liberation Sans" font-size="282px" font-weight="400"><tspan class="TextPosition" x="8597" y="9231"><tspan fill="rgb(0,0,0)" stroke="none">69</tspan></tspan></tspan></text>
 <text class="TextShape"><tspan class="TextParagraph" font-family="Liberation Sans" font-size="282px" font-weight="400"><tspan class="TextPosition" x="8936" y="9550"><tspan fill="rgb(0,0,0)" stroke="none">70</tspan></tspan></tspan></text>
 <text class="TextShape"><tspan class="TextParagraph" font-family="Liberation Sans" font-size="282px" font-weight="400"><tspan class="TextPosition" x="9274" y="9231"><tspan fill="rgb(0,0,0)" stroke="none">71</tspan></tspan></tspan></text>
 <text class="TextShape"><tspan class="TextParagraph" font-family="Liberation Sans" font-size="282px" font-weight="400"><tspan class="TextPosition" x="9613" y="9550"><tspan fill="rgb(0,0,0)" stroke="none">72</tspan></tspan></tspan></text>
 <text class="TextShape"><tspan class="TextParagraph" font-family="Liberation Sans" font-size="282px" font-weight="400"><tspan class="TextPosition" x="9952" y="9231"><tspan fill="rgb(0,0,0)" stroke="none">73</tspan></tspan></tspan></text>
 <text class="TextShape"><tspan class="TextParagraph" font-family="Liberation Sans" font-size="282px" font-weight="400"><tspan class="TextPosition" x="10290" y="9550"><tspan fill="rgb(0,0,0)" stroke="none">74</tspan></tspan></tspan></text>
 <text class="TextShape"><tspan class="TextParagraph" font-family="Liberation Sans" font-size="282px" font-weight="400"><tspan class="TextPosition" x="10629" y="9231"><tspan fill="rgb(0,0,0)" stroke="none">75</tspan></tspan></tspan></text>
 <text class="TextShape"><tspan class="TextParagraph" font-family="Liberation Sans" font-size="282px" font-weight="400"><tspan class="TextPosition" x="10968" y="9550"><tspan fill="rgb(0,0,0)" stroke="none">76</tspan></tspan></tspan></text>
 <text class="TextShape"><tspan class="TextParagraph" font-family="Liberation Sans" font-size="282px" font-weight="400"><tspan class="TextPosition" x="11306" y="9231"><tspan fill="rgb(0,0,0)" stroke="none">77</tspan></tspan></tspan></text>
 <text class="TextShape"><tspan class="TextParagraph" font-family="Liberation Sans" font-size="282px" font-weight="400"><tspan class="TextPosition" x="11645" y="9550"><tspan fill="rgb(0,0,0)" stroke="none">78</tspan></tspan></tspan></text>
 <text class="TextShape"><tspan class="TextParagraph" font-family="Liberation Sans" font-size="282px" font-weight="400"><tspan class="TextPosition" x="11984" y="9231"><tspan fill="rgb(0,0,0)" stroke="none">79</tspan></tspan></tspan></text>
 <text class="TextShape"><tspan class="TextParagraph" font-family="Liberation Sans" font-size="282px" font-weight="400"><tspan class="TextPosition" x="12322" y="9550"><tspan fill="rgb(0,0,0)" stroke="none">80</tspan></tspan></tspan></text>
 <text class="TextShape"><tspan class="TextParagraph" font-family="Liberation Sans" font-size="282px" font-weight="400"><tspan class="TextPosition" x="12661" y="9231"><tspan fill="rgb(0,0,0)" stroke="none">81</tspan></tspan></tspan></text>
 <text class="TextShape"><tspan class="TextParagraph" font-family="Liberation Sans" font-size="282px" font-weight="400"><tspan class="TextPosition" x="13000" y="9550"><tspan fill="rgb(0,0,0)" stroke="none">82</tspan></tspan></tspan></text>
 <text class="TextShape"><tspan class="TextParagraph" font-family="Liberation Sans" font-size="282px" font-weight="400"><tspan class="TextPosition" x="13338" y="9231"><tspan fill="rgb(0,0,0)" stroke="none">83</tspan></tspan></tspan></text>
 <text class="TextShape"><tspan class="TextParagraph" font-family="Liberation Sans" font-size="282px" font-weight="400"><tspan class="TextPosition" x="13677" y="9550"><tspan fill="rgb(0,0,0)" stroke="none">84</tspan></tspan></tspan></text>
 <text class="TextShape"><tspan class="TextParagraph" font-family="Liberation Sans" font-size="282px" font-weight="400"><tspan class="TextPosition" x="14016" y="9231"><tspan fill="rgb(0,0,0)" stroke="none">85</tspan></tspan></tspan></text>
 <text class="TextShape"><tspan class="TextParagraph" font-family="Liberation Sans" font-size="282px" font-weight="400"><tspan class="TextPosition" x="14355" y="9550"><tspan fill="rgb(0,0,0)" stroke="none">86</tspan></tspan></tspan></text>
 <text class="TextShape"><tspan class="TextParagraph" font-family="Liberation Sans" font-size="282px" font-weight="400"><tspan class="TextPosition" x="14693" y="9231"><tspan fill="rgb(0,0,0)" stroke="none">87</tspan></tspan></tspan></text>
 <text class="TextShape"><tspan class="TextParagraph" font-family="Liberation Sans" font-size="282px" font-weight="400"><tspan class="TextPosition" x="15032" y="9550"><tspan fill="rgb(0,0,0)" stroke="none">88</tspan></tspan></tspan></text>
 <text class="TextShape"><tspan class="TextParagraph" font-family="Liberation Sans" font-size="282px" font-weight="400"><tspan class="TextPosition" x="15371" y="9231"><tspan fill="rgb(0,0,0)" stroke="none">89</tspan></tspan></tspan></text>
 <text class="TextShape"><tspan class="TextParagraph" font-family="Liberation Sans" font-size="282px" font-weight="400"><tspan class="TextPosition" x="15709" y="9550"><tspan fill="rgb(0,0,0)" stroke="none">90</tspan></tspan></tspan></text>
 <text class="TextShape"><tspan class="TextParagraph" font-family="Liberation Sans" font-size="282px" font-weight="400"><tspan class="TextPosition" x="16048" y="9231"><tspan fill="rgb(0,0,0)" stroke="none">91</tspan></tspan></tspan></text>
 <text class="TextShape"><tspan class="TextParagraph" font-family="Liberation Sans" font-size="282px" font-weight="400"><tspan class="TextPosition" x="16387" y="9550"><tspan fill="rgb(0,0,0)" stroke="none">92</tspan></tspan></tspan></text>
 <text class="TextShape"><tspan class="TextParagraph" font-family="Liberation Sans" font-size="282px" font-weight="400"><tspan class="TextPosition" x="16725" y="9231"><tspan fill="rgb(0,0,0)" stroke="none">93</tspan></tspan></tspan></text>
 <text class="TextShape"><tspan class="TextParagraph" font-family="Liberation Sans" font-size="282px" font-weight="400"><tspan class="TextPosition" x="17064" y="9550"><tspan fill="rgb(0,0,0)" stroke="none">94</tspan></tspan></tspan></text>
 <text class="TextShape"><tspan class="TextParagraph" font-family="Liberation Sans" font-size="282px" font-weight="400"><tspan class="TextPosition" x="17403" y="9231"><tspan fill="rgb(0,0,0)" stroke="none">95</tspan></tspan></tspan></text>
 <text class="TextShape"><tspan class="TextParagraph" font-family="Liberation Sans" font-size="282px" font-weight="400"><tspan class="TextPosition" x="17741" y="9550"><tspan fill="rgb(0,0,0)" stroke="none">96</tspan></tspan></tspan></text>
 <text class="TextShape"><tspan class="TextParagraph" font-family="Liberation Sans" font-size="282px" font-weight="400"><tspan class="TextPosition" x="18080" y="9231"><tspan fill="rgb(0,0,0)" stroke="none">97</tspan></tspan></tspan></text>
 <text class="TextShape"><tspan class="TextParagraph" font-family="Liberation Sans" font-size="282px" font-weight="400"><tspan class="TextPosition" x="18419" y="9550"><tspan fill="rgb(0,0,0)" stroke="none">98</tspan></tspan></tspan></text>
 <text class="TextShape"><tspan class="TextParagraph" font-family="Liberation Sans" font-size="282px" font-weight="400"><tspan class="TextPosition" x="18757" y="9231"><tspan fill="rgb(0,0,0)" stroke="none">99</tspan></tspan></tspan></text>
 <text class="TextShape"><tspan class="TextParagraph" font-family="Liberation Sans" font-size="282px" font-weight="400"><tspan class="TextPosition" x="19017" y="9550"><tspan fill="rgb(0,0,0)" stroke="none">100</tspan></tspan></tspan></text>
 <text class="TextShape"><tspan class="TextParagraph" font-family="Liberation Sans" font-size="282px" font-weight="400"><tspan class="TextPosition" x="19356" y="9231"><tspan fill="rgb(0,0,0)" stroke="none">101</tspan></tspan></tspan></text>
 <text class="TextShape"><tspan class="TextParagraph" font-family="Liberation Sans" font-size="282px" font-weight="400"><tspan class="TextPosition" x="19694" y="9550"><tspan fill="rgb(0,0,0)" stroke="none">102</tspan></tspan></tspan></text>
 <text class="TextShape"><tspan class="TextParagraph" font-family="Liberation Sans" font-size="282px" font-weight="400"><tspan class="TextPosition" x="20033" y="9231"><tspan fill="rgb(0,0,0)" stroke="none">103</tspan></tspan></tspan></text>
 <text class="TextShape"><tspan class="TextParagraph" font-family="Liberation Sans" font-size="353px" font-weight="400"><tspan class="TextPosition" x="1399" y="8837"><tspan fill="rgb(0,0,0)" stroke="none">0%</tspan></tspan></tspan></text>
 <text class="TextShape"><tspan class="TextParagraph" font-family="Liberation Sans" font-size="353px" font-weight="400"><tspan class="TextPosition" x="1399" y="8009"><tspan fill="rgb(0,0,0)" stroke="none">1%</tspan></tspan></tspan></text>
 <text class="TextShape"><tspan class="TextParagraph" font-family="Liberation Sans" font-size="353px" font-weight="400"><tspan class="TextPosition" x="1399" y="7181"><tspan fill="rgb(0,0,0)" stroke="none">2%</tspan></tspan></tspan></text>
 <text class="TextShape"><tspan class="TextParagraph" font-family="Liberation Sans" font-size="353px" font-weight="400"><tspan class="TextPosition" x="1399" y="6353"><tspan fill="rgb(0,0,0)" stroke="none">3%</tspan></tspan></tspan></text>
 <text class="TextShape"><tspan class="TextParagraph" font-family="Liberation Sans" font-size="353px" font-weight="400"><tspan class="TextPosition" x="1399" y="5525"><tspan fill="rgb(0,0,0)" stroke="none">4%</tspan></tspan></tspan></text>
 <text class="TextShape"><tspan class="TextParagraph" font-family="Liberation Sans" font-size="353px" font-weight="400"><tspan class="TextPosition" x="1399" y="4697"><tspan fill="rgb(0,0,0)" stroke="none">5%</tspan></tspan></tspan></text>
 <text class="TextShape"><tspan class="TextParagraph" font-family="Liberation Sans" font-size="353px" font-weight="400"><tspan class="TextPosition" x="1399" y="3869"><tspan fill="rgb(0,0,0)" stroke="none">6%</tspan></tspan></tspan></text>
 <text class="TextShape"><tspan class="TextParagraph" font-family="Liberation Sans" font-size="353px" font-weight="400"><tspan class="TextPosition" x="1399" y="3041"><tspan fill="rgb(0,0,0)" stroke="none">7%</tspan></tspan></tspan></text>
 <text class="TextShape"><tspan class="TextParagraph" font-family="Liberation Sans" font-size="353px" font-weight="400"><tspan class="TextPosition" x="1399" y="2213"><tspan fill="rgb(0,0,0)" stroke="none">8%</tspan></tspan></tspan></text>
 <text class="TextShape"><tspan class="TextParagraph" font-family="Liberation Sans" font-size="353px" font-weight="400"><tspan class="TextPosition" x="1399" y="1386"><tspan fill="rgb(0,0,0)" stroke="none">9%</tspan></tspan></tspan></text>
 <text class="TextShape"><tspan class="TextParagraph" font-family="Liberation Sans" font-size="459px" font-weight="400"><tspan class="TextPosition" x="7906" y="886"><tspan fill="rgb(0,0,0)" stroke="none">Frequency of RPG Damage At Player Origin</tspan></tspan></tspan></text>
 <path fill="rgb(0,69,134)" stroke="none" d="M 21847,5234 L 21741,5234 21741,5023 21952,5023 21952,5234 21847,5234 Z"/>
 <path fill="rgb(255,66,14)" stroke="none" d="M 21847,5731 L 21741,5731 21741,5520 21952,5520 21952,5731 21847,5731 Z"/>
 <text class="TextShape"><tspan class="TextParagraph" font-family="Liberation Sans" font-size="353px" font-weight="400"><tspan class="TextPosition" x="22052" y="5248"><tspan fill="rgb(0,0,0)" stroke="none">Damage</tspan></tspan></tspan></text>
 <text class="TextShape"><tspan class="TextParagraph" font-family="Liberation Sans" font-size="353px" font-weight="400"><tspan class="TextPosition" x="22052" y="5745"><tspan fill="rgb(0,0,0)" stroke="none">Self-Damage</tspan></tspan></tspan></text>
 <text class="TextShape"><tspan class="TextParagraph" font-family="Liberation Sans" font-size="318px" font-weight="400"><tspan class="TextPosition" x="10319" y="10206"><tspan fill="rgb(0,0,0)" stroke="none">Damage</tspan></tspan></tspan></text>
 <text class="TextShape"><tspan class="TextParagraph" font-family="Liberation Sans" font-size="318px" font-weight="400"><tspan class="TextPosition" x="670" y="3962"><tspan fill="rgb(0,0,0)" stroke="none">F</tspan></tspan></tspan><tspan class="TextParagraph" font-family="Liberation Sans" font-size="318px" font-weight="400"><tspan class="TextPosition" x="710" y="4332"><tspan fill="rgb(0,0,0)" stroke="none">r</tspan></tspan></tspan><tspan class="TextParagraph" font-family="Liberation Sans" font-size="318px" font-weight="400"><tspan class="TextPosition" x="670" y="4702"><tspan fill="rgb(0,0,0)" stroke="none">e</tspan></tspan></tspan><tspan class="TextParagraph" font-family="Liberation Sans" font-size="318px" font-weight="400"><tspan class="TextPosition" x="670" y="5072"><tspan fill="rgb(0,0,0)" stroke="none">q</tspan></tspan></tspan><tspan class="TextParagraph" font-family="Liberation Sans" font-size="318px" font-weight="400"><tspan class="TextPosition" x="670" y="5442"><tspan fill="rgb(0,0,0)" stroke="none">u</tspan></tspan></tspan><tspan class="TextParagraph" font-family="Liberation Sans" font-size="318px" font-weight="400"><tspan class="TextPosition" x="670" y="5812"><tspan fill="rgb(0,0,0)" stroke="none">e</tspan></tspan></tspan><tspan class="TextParagraph" font-family="Liberation Sans" font-size="318px" font-weight="400"><tspan class="TextPosition" x="670" y="6182"><tspan fill="rgb(0,0,0)" stroke="none">n</tspan></tspan></tspan><tspan class="TextParagraph" font-family="Liberation Sans" font-size="318px" font-weight="400"><tspan class="TextPosition" x="683" y="6552"><tspan fill="rgb(0,0,0)" stroke="none">c</tspan></tspan></tspan><tspan class="TextParagraph" font-family="Liberation Sans" font-size="318px" font-weight="400"><tspan class="TextPosition" x="697" y="6922"><tspan fill="rgb(0,0,0)" stroke="none">y</tspan></tspan></tspan></text>
</svg>